PathFileType	4	(X/Y/Z)	 s01c0101.trc
DataRate	CameraRate	NumFrames	NumMarkers	Units	OrigDataRate	OrigDataStartFrame	OrigNumFrames
200	200	6	47	mm	200	501	2000
Frame#	Time	racr			lacr			c7			jug			rlel			rdr			llel			ldr			s2			lic			ric			lasi			rasi			rpsi			lpsi			rgt			lgt			rth1			rth2			rth3			rth4			rlfc			rsh1			rsh2			rsh3			rsh4			rlmal			rmmal			rcal			rtoe			rmt5			lth1			lth2			lth4			lth3			llfc			lsh1			lsh2			lsh3			lsh4			llmal			lcal			ltoe			lmt5			SBIKE			LBIKE			RBIKE			
		X1	Y1	Z1	X2	Y2	Z2	X3	Y3	Z3	X4	Y4	Z4	X5	Y5	Z5	X6	Y6	Z6	X7	Y7	Z7	X8	Y8	Z8	X9	Y9	Z9	X10	Y10	Z10	X11	Y11	Z11	X12	Y12	Z12	X13	Y13	Z13	X14	Y14	Z14	X15	Y15	Z15	X16	Y16	Z16	X17	Y17	Z17	X18	Y18	Z18	X19	Y19	Z19	X20	Y20	Z20	X21	Y21	Z21	X22	Y22	Z22	X23	Y23	Z23	X24	Y24	Z24	X25	Y25	Z25	X26	Y26	Z26	X27	Y27	Z27	X28	Y28	Z28	X29	Y29	Z29	X30	Y30	Z30	X31	Y31	Z31	X32	Y32	Z32	X33	Y33	Z33	X34	Y34	Z34	X35	Y35	Z35	X36	Y36	Z36	X37	Y37	Z37	X38	Y38	Z38	X39	Y39	Z39	X40	Y40	Z40	X41	Y41	Z41	X42	Y42	Z42	X43	Y43	Z43	X44	Y44	Z44	X45	Y45	Z45	X46	Y46	Z46	X47	Y47	Z47	
501	2.5050	505.798478	1329.231731	-119.639956	502.363063	1320.671638	-430.410615	444.453389	1405.839169	-274.057974	457.211551	1237.433245	-266.273636	570.474558	1067.303466	-7.978353	724.602126	854.839457	-54.577441	523.104367	1042.954492	-537.898857	707.703488	880.168980	-440.970404	-75.154495	1170.168898	-257.402459	93.511294	1177.844249	-433.597548	81.762895	1187.964973	-97.149771	99.901706	1129.756638	-402.448726	109.843452	1143.405605	-126.284882	-48.726737	1214.425566	-205.773736	-48.391115	1213.710303	-311.179229	39.327963	1081.572470	-61.010026	45.249162	1039.892250	-442.013391	156.045335	1015.769744	-48.781402	233.437835	985.068396	-49.103247	314.061411	944.866665	-58.186483	255.726964	1033.142325	-66.107817	384.239053	866.808886	-84.073240	301.328652	785.109682	-54.737998	244.070928	722.928543	-62.644349	177.656172	664.835160	-75.518264	277.675707	692.188300	-103.079852	81.186956	588.948136	-95.511182	123.820463	575.887113	-175.047321	32.058203	589.911613	-153.631987	220.300860	393.704060	-134.126665	122.344652	442.944936	-68.050336	102.468054	922.830516	-448.457554	169.210651	865.270853	-434.567577	205.565688	904.426395	-427.938776	225.818692	803.486732	-412.639681	286.253531	711.521459	-393.450194	258.918354	601.367093	-436.255736	256.594271	514.821441	-433.075832	251.337691	429.467141	-423.470716	309.733275	515.551468	-401.219734	241.207425	299.908663	-413.055551	196.501073	267.207509	-375.215079	472.755802	237.349584	-368.220965	370.873849	217.120170	-439.785012	-222.933078	893.601762	-249.679372	-12.006288	84.224715	-453.468066	-20.057032	80.701485	-53.603170	
502	2.5100	506.562928	1330.550849	-119.757396	503.688349	1321.151409	-430.212453	445.594470	1406.910589	-274.219325	457.965195	1238.668731	-265.963404	571.802881	1068.365044	-9.167575	724.982191	854.922587	-54.831582	525.128878	1043.603321	-537.325217	708.545336	879.729606	-440.481231	-73.999091	1170.605104	-258.547972	94.511880	1177.445554	-433.999299	82.545017	1189.508578	-97.791955	101.692277	1129.961584	-402.606385	110.601077	1144.598619	-126.959185	-47.789624	1215.153335	-207.038234	-47.030810	1213.887899	-312.539362	40.330419	1083.337322	-61.238451	46.413189	1039.465367	-442.322702	157.424954	1018.886012	-48.581085	235.101949	989.352940	-48.756771	316.368536	950.397510	-57.748935	256.495419	1037.558372	-67.159730	387.409001	873.305119	-83.396230	304.389361	791.489915	-54.476104	247.180662	729.265012	-62.347219	180.928655	671.066857	-75.562228	281.010312	699.363525	-101.955176	84.958717	594.864441	-95.641414	127.728261	582.069752	-175.365323	35.642492	595.345037	-153.803672	225.253680	400.738004	-134.461502	127.497000	449.425039	-68.122763	101.331952	921.967409	-449.147187	166.972963	863.364809	-435.459680	204.055426	901.707377	-428.603038	222.486947	800.442404	-413.603446	281.493587	707.528790	-394.856517	254.337364	597.251071	-437.562017	252.221026	510.612163	-434.257211	247.247509	425.289421	-424.646246	305.369728	511.535628	-402.382985	237.431902	295.627213	-413.912708	192.637386	264.048187	-376.352310	468.412227	229.464708	-367.890031	366.497754	211.027999	-440.030043	-222.913380	893.629291	-249.748036	-11.985400	84.228843	-453.476167	-20.020763	80.729870	-53.628291	
503	2.5150	507.335898	1331.824722	-119.981192	505.043122	1321.537399	-429.931815	446.670151	1407.932009	-274.510329	458.697787	1240.046480	-265.980393	573.044592	1069.358557	-10.403170	725.304795	855.021165	-55.174415	527.330407	1044.484499	-536.806261	709.519947	879.238113	-439.924548	-72.917573	1171.117323	-259.583628	95.682188	1177.292979	-434.208505	83.252837	1190.973847	-98.397401	107.463928	1130.925568	-405.601401	111.348552	1145.923456	-127.532846	-46.872123	1215.869644	-208.263048	-45.686703	1214.115587	-313.733918	41.289114	1085.073051	-61.498247	47.288989	1039.192132	-442.750308	158.403301	1022.155898	-48.835350	236.732486	994.072475	-48.780365	318.631674	956.274004	-57.664465	257.167514	1042.204361	-68.222269	390.334978	879.737092	-82.925396	307.320495	797.764004	-54.257013	250.304718	735.424603	-62.266735	184.096155	677.043381	-75.758523	284.265404	705.606571	-101.647016	88.792274	600.381071	-95.780040	131.741974	587.805453	-175.626002	39.287713	600.406991	-153.986043	232.868985	409.271578	-133.266228	132.896091	455.819975	-68.196255	99.996183	921.304522	-449.855647	164.519097	861.645165	-436.398595	202.298948	899.290775	-429.417480	218.822847	797.660482	-414.724857	276.522631	703.634382	-396.108966	249.425920	593.298502	-438.936080	247.546812	506.695339	-435.595543	242.851563	421.311401	-425.858212	300.680474	507.760095	-403.686701	234.345623	291.773273	-413.852143	188.495876	261.209172	-377.607514	463.576476	221.859183	-367.568843	361.852846	205.175403	-440.261987	-222.904969	893.654749	-249.831163	-11.977156	84.232686	-453.490183	-20.026452	80.745851	-53.613021	
504	2.5200	508.010659	1333.122931	-120.212103	506.441605	1321.973240	-429.618020	447.748079	1409.038697	-274.821844	459.513973	1241.324323	-266.035067	574.292327	1070.443921	-11.677332	725.583095	855.182014	-55.607227	529.700228	1045.566374	-536.363958	710.535630	878.753743	-439.628032	-71.866244	1171.800794	-260.710668	97.146870	1177.434258	-434.210964	83.986171	1192.343042	-99.061761	108.379296	1130.845420	-405.278022	112.036401	1147.191338	-128.201469	-45.934022	1216.587635	-209.376301	-44.394866	1214.395428	-314.877152	42.083389	1086.758314	-61.834484	47.918371	1039.136517	-443.169459	159.580743	1025.848231	-49.269495	238.271001	998.960391	-49.079724	320.732542	962.268329	-57.976775	258.001229	1047.193178	-68.850931	393.092274	886.026967	-82.532390	310.153224	803.878110	-54.292627	253.342030	741.370756	-62.274573	187.432275	682.761231	-75.979397	287.547471	711.531069	-101.553556	92.649704	605.559445	-96.010290	135.600890	593.525108	-175.938196	43.033321	605.059679	-154.192280	237.653107	415.641278	-134.250358	138.722450	462.156418	-68.201447	98.476130	920.826576	-450.578417	161.704524	860.024591	-437.470816	200.100809	896.973701	-430.705415	214.768362	795.086360	-415.991943	271.129011	699.765240	-397.470363	244.187384	589.545157	-440.432149	242.539027	502.868792	-436.922481	238.068620	417.579328	-427.179206	295.459233	504.130558	-404.800798	230.149656	287.986623	-414.785368	184.074902	258.572869	-378.769174	458.478819	214.638354	-367.328495	356.753180	199.523554	-440.431068	-222.904353	893.673056	-249.933247	-11.960792	84.227192	-453.487730	-20.005299	80.733938	-53.638029	
505	2.5250	508.473701	1334.494108	-120.623461	507.971586	1322.339726	-429.177332	448.844756	1410.128531	-275.123502	460.306956	1242.709068	-266.150228	575.397932	1071.646019	-12.895824	725.818921	855.392619	-56.066033	531.838652	1046.525893	-535.907366	711.584555	878.240382	-439.388932	-70.894227	1172.459712	-261.667605	98.664799	1177.855497	-433.896687	84.638136	1193.570444	-99.652717	109.354558	1130.836324	-404.965594	112.742280	1148.417137	-128.906227	-45.116969	1217.435762	-210.424080	-43.199858	1214.971494	-316.014814	42.990833	1088.517020	-62.238452	48.096898	1039.275364	-443.861633	160.617817	1029.706873	-50.006445	239.741350	1003.852782	-49.516815	322.802118	968.311187	-58.400966	258.865478	1052.399697	-69.216465	395.796477	892.326301	-82.343028	312.928978	809.907794	-54.305472	256.409477	747.137258	-62.317879	190.710236	688.208030	-76.249922	290.809818	717.410896	-101.429115	96.553749	610.440855	-96.218056	140.066982	599.017404	-176.671900	46.897142	609.294690	-154.420771	244.214257	422.934404	-134.407731	144.319866	467.757534	-68.317831	96.796038	920.517199	-451.316180	158.838629	858.635428	-438.612350	197.937973	894.875995	-431.738261	210.787996	792.692397	-417.263517	265.564370	696.314620	-398.940325	238.696246	586.035765	-441.947387	237.138496	499.413000	-438.342442	232.943342	414.107666	-428.513685	290.414041	500.918777	-406.536922	225.599776	284.517097	-415.655105	179.396842	256.192131	-379.544214	453.007587	207.616942	-367.247801	351.200467	194.178300	-440.602954	-222.930235	893.713984	-250.040081	-11.974698	84.232417	-453.502031	-20.011800	80.756765	-53.635959	
506	2.5300	509.098978	1336.070991	-120.658901	509.582288	1322.648926	-428.632366	449.918484	1411.205643	-275.462668	461.123243	1244.262264	-266.214669	576.491480	1072.821841	-14.081315	726.002449	855.652140	-56.536040	534.436285	1047.722126	-535.631210	712.647349	877.713466	-439.236177	-69.971000	1173.285529	-262.654555	100.389370	1178.693749	-433.629911	85.299486	1194.700591	-100.309833	109.895445	1131.008207	-404.625885	113.351393	1149.680376	-129.501730	-44.348758	1218.323851	-211.390217	-42.168470	1215.499488	-317.002690	43.622234	1090.412315	-62.641490	48.185776	1039.726916	-444.372699	161.684718	1033.648963	-50.621370	241.227996	1008.791375	-49.748418	324.787560	974.312973	-58.901918	259.718756	1057.595797	-69.622028	398.451594	898.616781	-82.219025	315.656812	815.791234	-54.474267	259.534833	752.668106	-62.452134	194.173737	693.419069	-76.492232	294.140452	723.130254	-101.451208	100.646662	614.889544	-96.464846	143.946525	604.087941	-176.734478	50.917191	613.098668	-154.700869	251.215918	429.840434	-134.481758	150.399854	473.281582	-68.377747	94.986769	920.360490	-452.072344	155.813040	857.394354	-439.890591	195.648031	892.959783	-432.836181	206.636802	790.635224	-418.714144	259.785797	693.185205	-400.641471	233.015563	582.789115	-443.517479	231.590184	496.231601	-439.758073	227.548314	410.835135	-429.657302	284.899695	497.829156	-408.033688	219.799510	281.726213	-417.260155	174.359561	254.021538	-380.278384	447.137396	201.147463	-367.106152	345.426528	189.226232	-440.744577	-222.986117	893.739161	-250.137816	-11.982152	84.253910	-453.514851	-20.026216	80.766401	-53.665473	
